<?xml version="1.0" encoding="UTF-8"?>
<svg xmlns="http://www.w3.org/2000/svg" viewBox="0 0 690 180">
  <defs>
    <style>
      .cls-1 {
        fill: #23afa5;
      }

      .cls-2 {
        fill-rule: evenodd;
      }

      .cls-2, .cls-3 {
        fill: #414141;
      }
    </style>
  </defs>
  <g id="Group_6_copy_5" data-name="Group 6 copy 5">
    <g id="Group_1-3" data-name="Group 1">
      <g id="Group_6_copy_6" data-name="Group 6 copy 6">
        <g id="job">
          <path class="cls-2" d="M20.36,110.85c0,3.5-.76,6.29-2.28,8.35-1.52,2.06-3.8,3.43-6.84,4.1l5.81,16.14c7.71-.88,13.3-3.61,16.78-8.19,3.48-4.59,5.22-11.55,5.22-20.89v-59.29h-18.69v59.79ZM107.63,58.5c-6.06-5.75-13.93-8.63-23.59-8.63s-17.45,2.87-23.47,8.6c-6.02,5.73-9.03,13.17-9.03,22.3s3.01,16.48,9.03,22.17c6.02,5.69,13.84,8.54,23.47,8.54s17.58-2.86,23.62-8.57c6.04-5.71,9.06-13.09,9.06-22.14s-3.03-16.51-9.09-22.27ZM93.73,92.87c-2.42,3.02-5.65,4.53-9.69,4.53s-7.22-1.51-9.66-4.53c-2.44-3.02-3.66-7.06-3.66-12.1s1.23-9.1,3.69-12.16c2.46-3.07,5.67-4.6,9.62-4.6s7.22,1.53,9.66,4.6c2.44,3.06,3.66,7.12,3.66,12.16s-1.21,9.08-3.62,12.1ZM184.85,58.1c-5-5.57-11.79-8.35-20.38-8.35-3.33,0-6.37.46-9.12,1.38-2.75.92-5.29,2.34-7.63,4.25V22.85h-18.56v84.06c5.21,1.54,10.1,2.69,14.69,3.44,4.58.75,8.94,1.12,13.06,1.12,11.12,0,19.81-2.71,26.06-8.13,6.25-5.42,9.37-12.95,9.37-22.58s-2.5-17.11-7.5-22.67ZM168.69,92.75c-2.65,2.94-6.24,4.41-10.78,4.41-1.83,0-3.59-.31-5.28-.94-1.69-.62-3.32-1.58-4.91-2.88v-25.02c1.63-1.29,3.29-2.27,5-2.94,1.71-.67,3.44-1,5.19-1,4.58,0,8.19,1.46,10.81,4.38,2.62,2.92,3.94,6.92,3.94,12.01s-1.32,9.04-3.97,11.98Z"/>
        </g>
        <g id="Rectangle_5" data-name="Rectangle 5">
          <rect class="cls-3" x="20.24" y="28.57" width="18.53" height="13.9"/>
        </g>
        <g id="Rectangle_5_copy_2" data-name="Rectangle 5 copy 2">
          <rect class="cls-1" x="269.42" y="28.57" width="18.53" height="13.9"/>
        </g>
        <g>
          <g id="Ellipse_2_copy" data-name="Ellipse 2 copy">
            <path class="cls-3" d="M589.87,12.16c-6.63,0-12,5.37-12,12,0,6.63,5.37,12,12,12,6.63,0,12-5.37,12-12,0-6.63-5.37-12-12-12Z"/>
          </g>
          <polygon class="cls-3" points="607.4 30.86 596.46 41.8 613.46 58.79 586.28 85.98 597.2 96.89 635.32 58.77 607.4 30.86"/>
        </g>
        <g>
          <g id="Ellipse_2_copy-2" data-name="Ellipse 2 copy">
            <path class="cls-1" d="M631.87,12.16c-6.63,0-12,5.37-12,12,0,6.63,5.37,12,12,12,6.63,0,12-5.37,12-12,0-6.63-5.37-12-12-12Z"/>
          </g>
          <polygon class="cls-1" points="649.4 30.86 638.46 41.8 655.46 58.79 628.28 85.98 639.2 96.89 677.32 58.77 649.4 30.86"/>
        </g>
      </g>
    </g>
  </g>
  <g id="Group_6_copy_4" data-name="Group 6 copy 4">
    <g>
      <path class="cls-1" d="M205.04,110.35V44.94h24.16c8.88,0,15.43,1.54,19.67,4.63,4.24,3.09,6.35,7.87,6.35,14.35,0,3.62-.94,6.71-2.8,9.28-1.87,2.57-4.74,4.75-8.6,6.52,1.62.59,3.08,1.58,4.37,2.97,1.29,1.39,2.42,3.14,3.39,5.26l10.42,22.4h-18.46l-8.32-18.84c-1.34-2.99-2.87-5.05-4.58-6.17-1.71-1.12-4.14-1.68-7.29-1.68-.25,0-.58.02-.98.05-.41.03-.72.05-.93.05v26.6h-16.4ZM229.28,71.78c3.02,0,5.27-.63,6.75-1.89,1.48-1.26,2.22-3.19,2.22-5.77s-.77-4.34-2.31-5.63c-1.54-1.29-3.76-1.94-6.66-1.94h-7.85v15.24h7.85Z"/>
      <path class="cls-1" d="M269.46,110.35v-59.29h18.69v59.29h-18.69Z"/>
      <path class="cls-1" d="M304.26,110.35v-59.29h18.56v7.44c2.92-3,5.98-5.19,9.19-6.57,3.21-1.38,6.87-2.06,11-2.06,6.5,0,11.48,1.97,14.94,5.91,3.46,3.94,5.19,9.62,5.19,17.04v37.53h-18.69v-34.96c0-4.21-.68-7.3-2.03-9.26-1.35-1.96-3.47-2.94-6.34-2.94-2.58,0-4.99.79-7.22,2.38-2.23,1.58-4.24,3.92-6.03,7v37.78h-18.56Z"/>
      <path class="cls-1" d="M392.13,90.9c-5.25-1.54-9.16-3.9-11.72-7.07-2.56-3.17-3.84-7.21-3.84-12.13,0-6.71,2.65-11.83,7.94-15.35,5.29-3.52,12.96-5.29,23-5.29h30.12v12.38h-8.37c.96,1.5,1.66,3.08,2.12,4.72.46,1.65.69,3.45.69,5.41,0,5.34-1.57,9.6-4.72,12.79-3.15,3.19-7.89,5.33-14.22,6.41-1.5.29-3.48.54-5.94.75-4.92.46-7.37,1.79-7.37,4s3.37,3.52,10.12,4.19c2.54.25,4.6.48,6.19.69,6.33.83,11.16,2.73,14.47,5.69,3.31,2.96,4.97,6.88,4.97,11.76,0,6.42-2.67,11.29-8,14.6-5.33,3.32-13.21,4.97-23.62,4.97-9.58,0-17.08-1.54-22.5-4.63-5.42-3.09-8.12-7.36-8.12-12.82,0-3.46,1.34-6.44,4.03-8.94,2.69-2.5,6.59-4.42,11.72-5.75-2.29-.71-4.01-1.67-5.16-2.88-1.15-1.21-1.72-2.69-1.72-4.44,0-2.29.82-4.19,2.47-5.69,1.65-1.5,4.14-2.63,7.47-3.38ZM390.76,120.99c0,2.42,1.16,4.24,3.47,5.47,2.31,1.23,5.76,1.84,10.34,1.84s8.07-.62,10.47-1.84c2.4-1.23,3.59-3.01,3.59-5.35,0-2.17-1.2-3.87-3.59-5.1-2.4-1.23-5.76-1.85-10.09-1.85s-8.04.59-10.5,1.78c-2.46,1.19-3.69,2.87-3.69,5.03ZM404.57,62.45c-3.21,0-5.78.93-7.72,2.78-1.94,1.85-2.91,4.31-2.91,7.35s.97,5.49,2.91,7.35c1.94,1.85,4.51,2.78,7.72,2.78s5.78-.93,7.72-2.78c1.94-1.86,2.91-4.3,2.91-7.35s-.97-5.49-2.91-7.35c-1.94-1.86-4.51-2.78-7.72-2.78Z"/>
      <path class="cls-1" d="M505.32,103.85c-4.04,2.63-8.3,4.58-12.78,5.85s-9.26,1.91-14.34,1.91c-10.21,0-18.21-2.79-24-8.38-5.79-5.59-8.69-13.32-8.69-23.2,0-9.13,2.83-16.44,8.5-21.92,5.67-5.48,13.21-8.22,22.62-8.22s16.63,2.97,22,8.91c5.38,5.94,8.06,14.13,8.06,24.55v.62h-41.94v.25c0,4.71,1.6,8.43,4.81,11.16,3.21,2.73,7.6,4.1,13.19,4.1,3.75,0,7.5-.67,11.25-2,3.75-1.33,7.52-3.32,11.31-5.94v12.32ZM464.88,74.89l23-.06c-.33-3.84-1.49-6.84-3.47-9.01-1.98-2.17-4.53-3.25-7.66-3.25s-5.87,1.08-7.97,3.25c-2.1,2.17-3.41,5.19-3.91,9.07Z"/>
      <path class="cls-1" d="M519.69,110.35v-61.48h19.38v16.47c3.29-6.23,6.44-10.69,9.46-13.39,3.03-2.7,6.33-4.05,9.92-4.05,1.77,0,3.64.37,5.61,1.1,1.96.74,4.16,1.88,6.58,3.44l-5.18,17.64c-1.95-1.51-3.74-2.62-5.38-3.31-1.64-.69-3.26-1.04-4.86-1.04-3.67,0-6.97,1.62-9.88,4.86-2.92,3.24-5,7.68-6.26,13.3v26.46h-19.38Z"/>
    </g>
    <rect class="cls-3" x="53.79" y="121.24" width="309.35" height="4.41"/>
    <g>
      <path class="cls-3" d="M58.77,156.76h-4.83v-23.46h4.83v23.46Z"/>
      <path class="cls-3" d="M70.34,139.32l.15,2.01c1.25-1.56,2.92-2.34,5.01-2.34,1.85,0,3.22.54,4.12,1.63s1.36,2.71,1.39,4.87v11.26h-4.66v-11.15c0-.99-.21-1.71-.64-2.15-.43-.45-1.14-.67-2.14-.67-1.31,0-2.29.56-2.95,1.68v12.29h-4.66v-17.43h4.38Z"/>
      <path class="cls-3" d="M86.91,147.91c0-2.72.61-4.88,1.83-6.49,1.22-1.61,2.89-2.42,5-2.42,1.7,0,3.1.63,4.21,1.9v-8.89h4.67v24.75h-4.21l-.23-1.85c-1.16,1.45-2.65,2.18-4.48,2.18-2.05,0-3.7-.81-4.94-2.42-1.24-1.62-1.86-3.86-1.86-6.74ZM91.57,148.26c0,1.64.28,2.89.85,3.76s1.4,1.31,2.48,1.31c1.44,0,2.45-.61,3.05-1.82v-6.89c-.58-1.22-1.58-1.82-3.01-1.82-2.25,0-3.37,1.82-3.37,5.47Z"/>
      <path class="cls-3" d="M109.3,134.81c0-.7.23-1.27.7-1.72.47-.45,1.1-.68,1.91-.68s1.43.23,1.9.68.71,1.03.71,1.72-.24,1.29-.72,1.74-1.11.68-1.89.68-1.42-.23-1.89-.68c-.48-.45-.72-1.03-.72-1.74ZM114.25,156.76h-4.67v-17.43h4.67v17.43Z"/>
      <path class="cls-3" d="M131.29,156.76c-.21-.42-.37-.94-.47-1.56-1.13,1.26-2.59,1.89-4.4,1.89-1.71,0-3.12-.49-4.25-1.48s-1.68-2.23-1.68-3.74c0-1.85.68-3.27,2.05-4.25,1.37-.99,3.35-1.49,5.94-1.5h2.14v-1c0-.81-.21-1.45-.62-1.93s-1.07-.73-1.96-.73c-.78,0-1.4.19-1.85.56s-.67.89-.67,1.55h-4.66c0-1.01.31-1.94.93-2.8s1.5-1.53,2.64-2.02,2.42-.73,3.83-.73c2.15,0,3.85.54,5.12,1.62,1.26,1.08,1.89,2.6,1.89,4.55v7.56c.01,1.65.24,2.91.69,3.75v.27h-4.71ZM127.43,153.52c.69,0,1.32-.15,1.9-.46.58-.31,1.01-.72,1.29-1.23v-3h-1.74c-2.33,0-3.57.81-3.72,2.42l-.02.27c0,.58.2,1.06.61,1.43s.97.56,1.68.56Z"/>
      <path class="cls-3" d="M143.04,140.5l-2.19-1.27c.92-1.45,1.4-2.95,1.43-4.5v-2.72h3.71v2.5c0,.97-.27,2.01-.81,3.14s-1.25,2.08-2.14,2.85Z"/>
      <path class="cls-3" d="M158.08,151.94c0-.57-.28-1.02-.85-1.35-.56-.33-1.47-.62-2.71-.88-4.15-.87-6.22-2.63-6.22-5.29,0-1.55.64-2.84,1.93-3.88,1.28-1.04,2.96-1.55,5.04-1.55,2.21,0,3.98.52,5.31,1.56,1.33,1.04,1.99,2.4,1.99,4.06h-4.66c0-.67-.21-1.22-.64-1.65-.43-.43-1.1-.65-2.01-.65-.78,0-1.39.18-1.82.53s-.64.81-.64,1.35c0,.52.24.93.73,1.25.49.32,1.31.59,2.47.82s2.14.49,2.93.78c2.46.9,3.69,2.47,3.69,4.69,0,1.59-.68,2.88-2.05,3.86-1.36.98-3.13,1.47-5.29,1.47-1.46,0-2.76-.26-3.89-.78-1.13-.52-2.02-1.24-2.67-2.14-.64-.91-.97-1.89-.97-2.94h4.42c.04.83.35,1.46.92,1.9s1.33.66,2.29.66c.89,0,1.57-.17,2.02-.51.46-.34.69-.78.69-1.33Z"/>
      <path class="cls-3" d="M189.79,133.29h4.83v16.24c0,1.49-.33,2.81-.99,3.96-.66,1.14-1.59,2.03-2.8,2.65s-2.56.93-4.08.93c-2.48,0-4.42-.63-5.8-1.89-1.39-1.26-2.08-3.05-2.08-5.36h4.87c0,1.15.24,2,.73,2.55s1.25.82,2.29.82c.92,0,1.66-.32,2.21-.95s.82-1.54.82-2.71v-16.24Z"/>
      <path class="cls-3" d="M200.84,147.88c0-1.73.33-3.27,1-4.62s1.62-2.4,2.88-3.14,2.7-1.11,4.36-1.11c2.35,0,4.27.72,5.76,2.16s2.32,3.39,2.49,5.87l.03,1.19c0,2.67-.75,4.82-2.24,6.44s-3.5,2.42-6.01,2.42-4.52-.81-6.02-2.42c-1.5-1.61-2.25-3.8-2.25-6.57v-.21ZM205.5,148.21c0,1.66.31,2.92.93,3.8.62.88,1.51,1.32,2.67,1.32s2.01-.43,2.64-1.3c.63-.87.95-2.25.95-4.16,0-1.62-.32-2.88-.95-3.78-.63-.89-1.53-1.34-2.67-1.34s-2.02.44-2.64,1.33-.93,2.26-.93,4.12Z"/>
      <path class="cls-3" d="M239.04,148.2c0,2.79-.6,4.97-1.79,6.53-1.19,1.56-2.86,2.34-5,2.34-1.89,0-3.4-.73-4.53-2.18l-.21,1.85h-4.19v-24.75h4.66v8.88c1.07-1.26,2.49-1.89,4.24-1.89,2.13,0,3.79.78,5,2.34,1.21,1.56,1.81,3.76,1.81,6.6v.26ZM234.38,147.86c0-1.76-.28-3.05-.84-3.86-.56-.81-1.39-1.22-2.5-1.22-1.48,0-2.5.61-3.06,1.82v6.88c.57,1.22,1.6,1.84,3.09,1.84s2.49-.74,2.96-2.22c.23-.71.34-1.79.34-3.24Z"/>
      <path class="cls-3" d="M261.47,148.49v8.27h-4.83v-23.46h9.15c1.76,0,3.31.32,4.65.97,1.34.64,2.37,1.56,3.09,2.75.72,1.19,1.08,2.54,1.08,4.05,0,2.3-.79,4.11-2.36,5.44s-3.75,1.99-6.53,1.99h-4.24ZM261.47,144.57h4.32c1.28,0,2.25-.3,2.92-.9.67-.6,1.01-1.46,1.01-2.58s-.34-2.08-1.02-2.79-1.61-1.07-2.8-1.1h-4.43v7.36Z"/>
      <path class="cls-3" d="M279.78,147.88c0-1.73.33-3.27,1-4.62s1.62-2.4,2.88-3.14,2.7-1.11,4.36-1.11c2.35,0,4.27.72,5.76,2.16s2.32,3.39,2.49,5.87l.03,1.19c0,2.67-.75,4.82-2.24,6.44s-3.5,2.42-6.01,2.42-4.52-.81-6.02-2.42c-1.5-1.61-2.25-3.8-2.25-6.57v-.21ZM284.44,148.21c0,1.66.31,2.92.93,3.8.62.88,1.51,1.32,2.67,1.32s2.01-.43,2.64-1.3c.63-.87.95-2.25.95-4.16,0-1.62-.32-2.88-.95-3.78-.63-.89-1.53-1.34-2.67-1.34s-2.02.44-2.64,1.33-.93,2.26-.93,4.12Z"/>
      <path class="cls-3" d="M312.06,143.69c-.63-.09-1.19-.13-1.68-.13-1.76,0-2.92.6-3.46,1.79v11.41h-4.66v-17.43h4.4l.13,2.08c.93-1.6,2.23-2.4,3.88-2.4.52,0,1,.07,1.45.21l-.06,4.48Z"/>
      <path class="cls-3" d="M323.78,135.03v4.29h2.98v3.42h-2.98v8.7c0,.64.12,1.11.37,1.39s.72.42,1.42.42c.52,0,.97-.04,1.37-.11v3.53c-.91.28-1.85.42-2.82.42-3.27,0-4.93-1.65-5-4.95v-9.39h-2.55v-3.42h2.55v-4.29h4.66Z"/>
      <path class="cls-3" d="M342.56,156.76c-.21-.42-.37-.94-.47-1.56-1.13,1.26-2.59,1.89-4.4,1.89-1.71,0-3.12-.49-4.25-1.48s-1.68-2.23-1.68-3.74c0-1.85.68-3.27,2.05-4.25,1.37-.99,3.35-1.49,5.94-1.5h2.14v-1c0-.81-.21-1.45-.62-1.93-.41-.48-1.07-.73-1.96-.73-.78,0-1.4.19-1.84.56s-.67.89-.67,1.55h-4.66c0-1.01.31-1.94.93-2.8s1.5-1.53,2.64-2.02,2.42-.73,3.83-.73c2.15,0,3.85.54,5.12,1.62,1.26,1.08,1.89,2.6,1.89,4.55v7.56c0,1.65.24,2.91.69,3.75v.27h-4.71ZM338.71,153.52c.69,0,1.32-.15,1.9-.46.58-.31,1.01-.72,1.29-1.23v-3h-1.74c-2.33,0-3.57.81-3.72,2.42l-.02.27c0,.58.2,1.06.61,1.43.41.38.97.56,1.68.56Z"/>
      <path class="cls-3" d="M358.17,156.76h-4.67v-24.75h4.67v24.75Z"/>
    </g>
  </g>
</svg>